<svg xmlns="http://www.w3.org/2000/svg" width="850" height="880" style="background:#1a1a2e">
<text x="425" y="28" fill="#ddd" font-size="16" text-anchor="middle" font-family="monospace" font-weight="bold">Time Series</text>
<text x="425" y="48" fill="#888" font-size="12" text-anchor="middle" font-family="monospace">8 GB total, 1 file(s) x 8192 MB, 500 peers</text>
<text x="630" y="66" fill="#E45932" font-size="11" font-family="monospace">— rtbit</text>
<text x="740" y="66" fill="#2681FF" font-size="11" font-family="monospace">— qBittorrent</text><rect x="70" y="75" width="750" height="160" fill="#16213e" rx="4"/><text x="445" y="67" fill="#ddd" font-size="13" text-anchor="middle" font-family="monospace" font-weight="bold">CPU (%)</text><line x1="70" y1="235" x2="820" y2="235" stroke="#333" stroke-width="0.5"/><text x="66" y="238" fill="#888" font-size="8" text-anchor="end" font-family="monospace">0</text><line x1="70" y1="198" x2="820" y2="198" stroke="#333" stroke-width="0.5"/><text x="66" y="200.5" fill="#888" font-size="8" text-anchor="end" font-family="monospace">243</text><line x1="70" y1="160" x2="820" y2="160" stroke="#333" stroke-width="0.5"/><text x="66" y="163" fill="#888" font-size="8" text-anchor="end" font-family="monospace">487</text><line x1="70" y1="122" x2="820" y2="122" stroke="#333" stroke-width="0.5"/><text x="66" y="125.5" fill="#888" font-size="8" text-anchor="end" font-family="monospace">730</text><line x1="70" y1="85" x2="820" y2="85" stroke="#333" stroke-width="0.5"/><text x="66" y="88" fill="#888" font-size="8" text-anchor="end" font-family="monospace">974</text><text x="70" y="247" fill="#888" font-size="8" text-anchor="middle" font-family="monospace">0s</text><text x="258" y="247" fill="#888" font-size="8" text-anchor="middle" font-family="monospace">3s</text><text x="445" y="247" fill="#888" font-size="8" text-anchor="middle" font-family="monospace">6s</text><text x="632" y="247" fill="#888" font-size="8" text-anchor="middle" font-family="monospace">8s</text><text x="820" y="247" fill="#888" font-size="8" text-anchor="middle" font-family="monospace">11s</text><polyline points="70.0,97.1 138.1,108.6 206.3,99.8 274.6,85.0 342.7,145.5" fill="none" stroke="#E45932" stroke-width="2" opacity="0.9"/><line x1="343" y1="75" x2="343" y2="235" stroke="#E45932" stroke-dasharray="3" stroke-width="1" opacity="0.6"/><circle cx="342.7" cy="145.5" r="3" fill="#E45932"/><text x="347" y="85" fill="#E45932" font-size="8" font-family="monospace">rtbit done (4s)</text><polyline points="70.0,235.0 138.2,235.0 206.3,235.0 274.5,235.0 342.6,140.0 410.8,154.1 479.0,157.0 547.2,162.0 615.4,161.9 683.6,161.3 751.8,206.9 820.0,235.0" fill="none" stroke="#2681FF" stroke-width="2" opacity="0.9"/><rect x="70" y="275" width="750" height="160" fill="#16213e" rx="4"/><text x="445" y="267" fill="#ddd" font-size="13" text-anchor="middle" font-family="monospace" font-weight="bold">Memory (MB)</text><line x1="70" y1="435" x2="820" y2="435" stroke="#333" stroke-width="0.5"/><text x="66" y="438" fill="#888" font-size="8" text-anchor="end" font-family="monospace">0</text><line x1="70" y1="398" x2="820" y2="398" stroke="#333" stroke-width="0.5"/><text x="66" y="400.5" fill="#888" font-size="8" text-anchor="end" font-family="monospace">73</text><line x1="70" y1="360" x2="820" y2="360" stroke="#333" stroke-width="0.5"/><text x="66" y="363" fill="#888" font-size="8" text-anchor="end" font-family="monospace">145</text><line x1="70" y1="322" x2="820" y2="322" stroke="#333" stroke-width="0.5"/><text x="66" y="325.5" fill="#888" font-size="8" text-anchor="end" font-family="monospace">218</text><line x1="70" y1="285" x2="820" y2="285" stroke="#333" stroke-width="0.5"/><text x="66" y="288" fill="#888" font-size="8" text-anchor="end" font-family="monospace">291</text><text x="70" y="447" fill="#888" font-size="8" text-anchor="middle" font-family="monospace">0s</text><text x="258" y="447" fill="#888" font-size="8" text-anchor="middle" font-family="monospace">3s</text><text x="445" y="447" fill="#888" font-size="8" text-anchor="middle" font-family="monospace">6s</text><text x="632" y="447" fill="#888" font-size="8" text-anchor="middle" font-family="monospace">8s</text><text x="820" y="447" fill="#888" font-size="8" text-anchor="middle" font-family="monospace">11s</text><polyline points="70.0,386.7 138.1,362.4 206.3,336.5 274.6,306.2 342.7,303.2" fill="none" stroke="#E45932" stroke-width="2" opacity="0.9"/><line x1="343" y1="275" x2="343" y2="435" stroke="#E45932" stroke-dasharray="3" stroke-width="1" opacity="0.6"/><circle cx="342.7" cy="303.2" r="3" fill="#E45932"/><polyline points="70.0,419.0 138.2,419.0 206.3,419.0 274.5,419.0 342.6,389.0 410.8,365.3 479.0,344.4 547.2,323.3 615.4,307.3 683.6,285.0 751.8,293.4 820.0,293.7" fill="none" stroke="#2681FF" stroke-width="2" opacity="0.9"/><rect x="70" y="475" width="750" height="160" fill="#16213e" rx="4"/><text x="445" y="467" fill="#ddd" font-size="13" text-anchor="middle" font-family="monospace" font-weight="bold">Net RX (Mbps)</text><line x1="70" y1="635" x2="820" y2="635" stroke="#333" stroke-width="0.5"/><text x="66" y="638" fill="#888" font-size="8" text-anchor="end" font-family="monospace">0</text><line x1="70" y1="598" x2="820" y2="598" stroke="#333" stroke-width="0.5"/><text x="66" y="600.5" fill="#888" font-size="8" text-anchor="end" font-family="monospace">4111</text><line x1="70" y1="560" x2="820" y2="560" stroke="#333" stroke-width="0.5"/><text x="66" y="563" fill="#888" font-size="8" text-anchor="end" font-family="monospace">8222</text><line x1="70" y1="522" x2="820" y2="522" stroke="#333" stroke-width="0.5"/><text x="66" y="525.5" fill="#888" font-size="8" text-anchor="end" font-family="monospace">12333</text><line x1="70" y1="485" x2="820" y2="485" stroke="#333" stroke-width="0.5"/><text x="66" y="488" fill="#888" font-size="8" text-anchor="end" font-family="monospace">16444</text><text x="70" y="647" fill="#888" font-size="8" text-anchor="middle" font-family="monospace">0s</text><text x="258" y="647" fill="#888" font-size="8" text-anchor="middle" font-family="monospace">3s</text><text x="445" y="647" fill="#888" font-size="8" text-anchor="middle" font-family="monospace">6s</text><text x="632" y="647" fill="#888" font-size="8" text-anchor="middle" font-family="monospace">8s</text><text x="820" y="647" fill="#888" font-size="8" text-anchor="middle" font-family="monospace">11s</text><polyline points="70.0,496.8 138.1,515.1 206.3,505.0 274.6,485.0 342.7,546.0" fill="none" stroke="#E45932" stroke-width="2" opacity="0.9"/><line x1="343" y1="475" x2="343" y2="635" stroke="#E45932" stroke-dasharray="3" stroke-width="1" opacity="0.6"/><circle cx="342.7" cy="546.0" r="3" fill="#E45932"/><polyline points="70.0,635.0 138.2,635.0 206.3,635.0 274.5,635.0 342.6,513.9 410.8,534.9 479.0,533.4 547.2,545.2 615.4,547.1 683.6,541.5 751.8,601.0 820.0,635.0" fill="none" stroke="#2681FF" stroke-width="2" opacity="0.9"/><rect x="70" y="675" width="750" height="160" fill="#16213e" rx="4"/><text x="445" y="667" fill="#ddd" font-size="13" text-anchor="middle" font-family="monospace" font-weight="bold">Disk Write (MB/s)</text><line x1="70" y1="835" x2="820" y2="835" stroke="#333" stroke-width="0.5"/><text x="66" y="838" fill="#888" font-size="8" text-anchor="end" font-family="monospace">0</text><line x1="70" y1="798" x2="820" y2="798" stroke="#333" stroke-width="0.5"/><text x="66" y="800.5" fill="#888" font-size="8" text-anchor="end" font-family="monospace">507</text><line x1="70" y1="760" x2="820" y2="760" stroke="#333" stroke-width="0.5"/><text x="66" y="763" fill="#888" font-size="8" text-anchor="end" font-family="monospace">1015</text><line x1="70" y1="722" x2="820" y2="722" stroke="#333" stroke-width="0.5"/><text x="66" y="725.5" fill="#888" font-size="8" text-anchor="end" font-family="monospace">1522</text><line x1="70" y1="685" x2="820" y2="685" stroke="#333" stroke-width="0.5"/><text x="66" y="688" fill="#888" font-size="8" text-anchor="end" font-family="monospace">2030</text><text x="70" y="847" fill="#888" font-size="8" text-anchor="middle" font-family="monospace">0s</text><text x="258" y="847" fill="#888" font-size="8" text-anchor="middle" font-family="monospace">3s</text><text x="445" y="847" fill="#888" font-size="8" text-anchor="middle" font-family="monospace">6s</text><text x="632" y="847" fill="#888" font-size="8" text-anchor="middle" font-family="monospace">8s</text><text x="820" y="847" fill="#888" font-size="8" text-anchor="middle" font-family="monospace">11s</text><polyline points="70.0,835.0 138.1,685.0 206.3,727.1 274.6,835.0 342.7,783.0" fill="none" stroke="#E45932" stroke-width="2" opacity="0.9"/><line x1="343" y1="675" x2="343" y2="835" stroke="#E45932" stroke-dasharray="3" stroke-width="1" opacity="0.6"/><circle cx="342.7" cy="783.0" r="3" fill="#E45932"/><polyline points="70.0,835.0 138.2,835.0 206.3,835.0 274.5,835.0 342.6,835.0 410.8,813.8 479.0,835.0 547.2,750.1 615.4,751.3 683.6,744.4 751.8,803.0 820.0,835.0" fill="none" stroke="#2681FF" stroke-width="2" opacity="0.9"/></svg>