<svg xmlns="http://www.w3.org/2000/svg" width="900" height="502" style="background:#1a1a2e">
<text x="450" y="28" fill="#ddd" font-size="16" text-anchor="middle" font-family="monospace" font-weight="bold">Metric Comparison</text>
<text x="450" y="48" fill="#888" font-size="12" text-anchor="middle" font-family="monospace">8 GB total, 1 file(s) x 8192 MB, 3 peers</text>
<text x="680" y="68" fill="#E45932" font-size="11" font-family="monospace">■ rqbit</text>
<text x="790" y="68" fill="#2681FF" font-size="11" font-family="monospace">■ qBittorrent</text><text x="20" y="100" fill="#888" font-size="10" font-family="monospace" text-transform="uppercase">Performance</text><line x1="20" y1="104" x2="880" y2="104" stroke="#333" stroke-width="1"/><text x="160" y="122" fill="#ddd" font-size="11" text-anchor="end" font-family="monospace">Duration</text><rect x="190" y="110" width="113.0" height="16" fill="#E45932" opacity="0.9" rx="2"/><text x="307.9975473391677" y="122" fill="#ddd" font-size="9" font-family="monospace">6.0 s</text><rect x="190" y="130" width="320.0" height="16" fill="#2681FF" opacity="0.9" rx="2"/><text x="515" y="142" fill="#ddd" font-size="9" font-family="monospace">17.0 s</text><text x="160" y="166" fill="#ddd" font-size="11" text-anchor="end" font-family="monospace">Avg Speed</text><rect x="190" y="154" width="320.0" height="16" fill="#E45932" opacity="0.9" rx="2"/><text x="515" y="166" fill="#ddd" font-size="9" font-family="monospace">12764.1 Mbps</text><rect x="190" y="174" width="105.4" height="16" fill="#2681FF" opacity="0.9" rx="2"/><text x="300.42180620297137" y="186" fill="#ddd" font-size="9" font-family="monospace">4205.0 Mbps</text><text x="160" y="210" fill="#ddd" font-size="11" text-anchor="end" font-family="monospace">Peak Speed</text><rect x="190" y="198" width="320.0" height="16" fill="#E45932" opacity="0.9" rx="2"/><text x="515" y="210" fill="#ddd" font-size="9" font-family="monospace">15223.1 Mbps</text><rect x="190" y="218" width="112.8" height="16" fill="#2681FF" opacity="0.9" rx="2"/><text x="307.82779226100286" y="230" fill="#ddd" font-size="9" font-family="monospace">5367.5 Mbps</text><text x="160" y="254" fill="#ddd" font-size="11" text-anchor="end" font-family="monospace">Time to 1st Piece</text><rect x="190" y="242" width="64.0" height="16" fill="#E45932" opacity="0.9" rx="2"/><text x="259.01651676112806" y="254" fill="#ddd" font-size="9" font-family="monospace">1.0 s</text><rect x="190" y="262" width="320.0" height="16" fill="#2681FF" opacity="0.9" rx="2"/><text x="515" y="274" fill="#ddd" font-size="9" font-family="monospace">5.0 s</text><text x="20" y="306" fill="#888" font-size="10" font-family="monospace" text-transform="uppercase">Resource Usage</text><line x1="20" y1="310" x2="880" y2="310" stroke="#333" stroke-width="1"/><text x="160" y="328" fill="#ddd" font-size="11" text-anchor="end" font-family="monospace">CPU Avg</text><rect x="190" y="316" width="320.0" height="16" fill="#E45932" opacity="0.9" rx="2"/><text x="515" y="328" fill="#ddd" font-size="9" font-family="monospace">751.4 %</text><rect x="190" y="336" width="60.4" height="16" fill="#2681FF" opacity="0.9" rx="2"/><text x="255.3652624090332" y="348" fill="#ddd" font-size="9" font-family="monospace">141.7 %</text><text x="160" y="372" fill="#ddd" font-size="11" text-anchor="end" font-family="monospace">CPU Peak</text><rect x="190" y="360" width="320.0" height="16" fill="#E45932" opacity="0.9" rx="2"/><text x="515" y="372" fill="#ddd" font-size="9" font-family="monospace">874.3 %</text><rect x="190" y="380" width="79.4" height="16" fill="#2681FF" opacity="0.9" rx="2"/><text x="274.41333769176765" y="392" fill="#ddd" font-size="9" font-family="monospace">217.0 %</text><text x="160" y="416" fill="#ddd" font-size="11" text-anchor="end" font-family="monospace">Mem Avg</text><rect x="190" y="404" width="320.0" height="16" fill="#E45932" opacity="0.9" rx="2"/><text x="515" y="416" fill="#ddd" font-size="9" font-family="monospace">174.7 MB</text><rect x="190" y="424" width="261.4" height="16" fill="#2681FF" opacity="0.9" rx="2"/><text x="456.35087048679225" y="436" fill="#ddd" font-size="9" font-family="monospace">142.7 MB</text><text x="160" y="460" fill="#ddd" font-size="11" text-anchor="end" font-family="monospace">Mem Peak</text><rect x="190" y="448" width="298.4" height="16" fill="#E45932" opacity="0.9" rx="2"/><text x="493.4107365960477" y="460" fill="#ddd" font-size="9" font-family="monospace">271.2 MB</text><rect x="190" y="468" width="320.0" height="16" fill="#2681FF" opacity="0.9" rx="2"/><text x="515" y="480" fill="#ddd" font-size="9" font-family="monospace">290.8 MB</text></svg>